<svg width="595" height="130" viewBox="0 0 595 130" fill="none" xmlns="http://www.w3.org/2000/svg">
<g id="Property 1=Default">
<g id="icon-padded/Cleaned">
<g id="Dark">
<g id="Union">
<mask id="path-1-inside-1_914_61525" fill="white">
<path fill-rule="evenodd" clip-rule="evenodd" d="M69.9746 104.882C65.1151 108.166 62.6854 109.807 60.6684 109.696C58.9115 109.598 57.2859 108.735 56.2217 107.334C55 105.725 55 102.792 55 96.9276V33.0725C55 27.2077 55 24.2753 56.2217 22.6666C57.2859 21.2653 58.9115 20.4018 60.6684 20.3045C62.6854 20.1929 65.1151 21.8346 69.9747 25.1181L117.227 57.0456C121.17 59.7098 123.142 61.0419 123.831 62.7154C124.434 64.1789 124.434 65.8212 123.831 67.2847C123.142 68.9583 121.17 70.2904 117.227 72.9545L69.9746 104.882ZM146 21.0001C148.209 21.0001 150 22.7909 150 25.0001V105C150 107.209 148.209 109 146 109H136.5C134.291 109 132.5 107.209 132.5 105V25.0001C132.5 22.7909 134.291 21.0001 136.5 21.0001H146Z"/>
</mask>
<path fill-rule="evenodd" clip-rule="evenodd" d="M69.9746 104.882C65.1151 108.166 62.6854 109.807 60.6684 109.696C58.9115 109.598 57.2859 108.735 56.2217 107.334C55 105.725 55 102.792 55 96.9276V33.0725C55 27.2077 55 24.2753 56.2217 22.6666C57.2859 21.2653 58.9115 20.4018 60.6684 20.3045C62.6854 20.1929 65.1151 21.8346 69.9747 25.1181L117.227 57.0456C121.17 59.7098 123.142 61.0419 123.831 62.7154C124.434 64.1789 124.434 65.8212 123.831 67.2847C123.142 68.9583 121.17 70.2904 117.227 72.9545L69.9746 104.882ZM146 21.0001C148.209 21.0001 150 22.7909 150 25.0001V105C150 107.209 148.209 109 146 109H136.5C134.291 109 132.5 107.209 132.5 105V25.0001C132.5 22.7909 134.291 21.0001 136.5 21.0001H146Z" fill="#53389E"/>
<path d="M123.831 62.7154L122.906 63.0962L123.831 62.7154ZM117.227 72.9545L116.668 72.126L117.227 72.9545ZM123.831 67.2847L122.906 66.904L123.831 67.2847ZM56.2217 107.334L57.0181 106.729L56.2217 107.334ZM69.9746 104.882L70.5345 105.711L69.9746 104.882ZM60.6684 109.696L60.6132 110.694L60.6684 109.696ZM54 33.0725V96.9276H56V33.0725H54ZM117.787 56.217L70.5345 24.2895L69.4148 25.9467L116.668 57.8742L117.787 56.217ZM70.5345 105.711L117.787 73.7831L116.668 72.126L69.4148 104.053L70.5345 105.711ZM151 25.0001C151 22.2387 148.761 20.0001 146 20.0001V22.0001C147.657 22.0001 149 23.3432 149 25.0001H151ZM151 105V25.0001H149V105H151ZM146 110C148.761 110 151 107.762 151 105H149C149 106.657 147.657 108 146 108V110ZM136.5 110H146V108H136.5V110ZM131.5 105C131.5 107.762 133.739 110 136.5 110V108C134.843 108 133.5 106.657 133.5 105H131.5ZM131.5 25.0001V105H133.5V25.0001H131.5ZM136.5 20.0001C133.739 20.0001 131.5 22.2387 131.5 25.0001H133.5C133.5 23.3432 134.843 22.0001 136.5 22.0001V20.0001ZM146 20.0001H136.5V22.0001H146V20.0001ZM116.668 57.8742C118.655 59.217 120.088 60.1868 121.117 61.0266C122.143 61.8647 122.656 62.4883 122.906 63.0962L124.756 62.3347C124.317 61.269 123.499 60.3898 122.382 59.4774C121.267 58.5667 119.743 57.5384 117.787 56.217L116.668 57.8742ZM117.787 73.7831C119.743 72.4618 121.266 71.4335 122.382 70.5228C123.499 69.6104 124.317 68.7312 124.756 67.6655L122.906 66.904C122.656 67.5118 122.143 68.1355 121.117 68.9736C120.088 69.8134 118.655 70.7832 116.668 72.126L117.787 73.7831ZM122.906 63.0962C123.409 64.3158 123.409 65.6844 122.906 66.904L124.756 67.6655C125.459 65.9581 125.459 64.0421 124.756 62.3347L122.906 63.0962ZM54 96.9276C54 99.8401 53.999 102.094 54.1569 103.818C54.3138 105.531 54.6386 106.902 55.4253 107.938L57.0181 106.729C56.5831 106.156 56.2971 105.257 56.1485 103.635C56.001 102.025 56 99.8799 56 96.9276H54ZM69.4148 104.053C66.9685 105.706 65.1909 106.906 63.7736 107.686C62.347 108.47 61.4419 108.737 60.7237 108.697L60.6132 110.694C61.9119 110.766 63.2302 110.267 64.7375 109.438C66.2542 108.604 68.1212 107.341 70.5345 105.711L69.4148 104.053ZM55.4253 107.938C56.6669 109.573 58.5635 110.581 60.6132 110.694L60.7237 108.697C59.2596 108.616 57.9049 107.896 57.0181 106.729L55.4253 107.938ZM56 33.0725C56 30.1203 56.001 27.9756 56.1485 26.3648C56.2971 24.7433 56.5831 23.8442 57.0181 23.2714L55.4253 22.0618C54.6386 23.0977 54.3138 24.4692 54.1569 26.1823C53.999 27.9061 54 30.16 54 33.0725H56ZM70.5345 24.2895C68.1212 22.6589 66.2542 21.3962 64.7375 20.5619C63.2302 19.7328 61.912 19.2342 60.6132 19.3061L60.7237 21.303C61.4419 21.2633 62.347 21.5296 63.7736 22.3144C65.1909 23.0939 66.9686 24.2938 69.4148 25.9467L70.5345 24.2895ZM57.0181 23.2714C57.9049 22.1037 59.2596 21.384 60.7237 21.303L60.6132 19.3061C58.5635 19.4195 56.6669 20.427 55.4253 22.0618L57.0181 23.2714Z" fill="url(#paint0_linear_914_61525)" fill-opacity="0.6" mask="url(#path-1-inside-1_914_61525)"/>
</g>
</g>
<g id="Light">
<g id="Union_2">
<mask id="path-3-inside-2_914_61525" fill="white">
<path fill-rule="evenodd" clip-rule="evenodd" d="M29.3591 108.676C25.3744 111.369 20 108.514 20 103.705V26.2953C20 21.4863 25.3744 18.6314 29.3592 21.3238L86.6421 60.0285C90.1633 62.4077 90.1633 67.5925 86.6421 69.9716L29.3591 108.676ZM111 21.0001C113.209 21.0001 115 22.7909 115 25.0001V105C115 107.209 113.209 109 111 109H101.5C99.2909 109 97.5 107.209 97.5 105V25.0001C97.5 22.7909 99.2909 21.0001 101.5 21.0001H111Z"/>
</mask>
<path fill-rule="evenodd" clip-rule="evenodd" d="M29.3591 108.676C25.3744 111.369 20 108.514 20 103.705V26.2953C20 21.4863 25.3744 18.6314 29.3592 21.3238L86.6421 60.0285C90.1633 62.4077 90.1633 67.5925 86.6421 69.9716L29.3591 108.676ZM111 21.0001C113.209 21.0001 115 22.7909 115 25.0001V105C115 107.209 113.209 109 111 109H101.5C99.2909 109 97.5 107.209 97.5 105V25.0001C97.5 22.7909 99.2909 21.0001 101.5 21.0001H111Z" fill="#D6BBFB"/>
<path d="M86.6421 69.9716L86.0823 69.143L86.6421 69.9716ZM29.3591 108.676L28.7993 107.848L29.3591 108.676ZM19 26.2953V103.705H21V26.2953H19ZM87.202 59.1999L29.919 20.4952L28.7993 22.1524L86.0823 60.8571L87.202 59.1999ZM29.919 109.505L87.202 70.8002L86.0823 69.143L28.7993 107.848L29.919 109.505ZM116 25.0001C116 22.2386 113.761 20.0001 111 20.0001V22.0001C112.657 22.0001 114 23.3432 114 25.0001H116ZM116 105V25.0001H114V105H116ZM111 110C113.761 110 116 107.761 116 105H114C114 106.657 112.657 108 111 108V110ZM101.5 110H111V108H101.5V110ZM96.5 105C96.5 107.761 98.7386 110 101.5 110V108C99.8431 108 98.5 106.657 98.5 105H96.5ZM96.5 25.0001V105H98.5V25.0001H96.5ZM101.5 20.0001C98.7386 20.0001 96.5 22.2386 96.5 25.0001H98.5C98.5 23.3432 99.8431 22.0001 101.5 22.0001V20.0001ZM111 20.0001H101.5V22.0001H111V20.0001ZM86.0823 60.8571C89.0166 62.8397 89.0165 67.1604 86.0823 69.143L87.202 70.8002C91.31 68.0245 91.31 61.9756 87.202 59.1999L86.0823 60.8571ZM19 103.705C19 109.315 25.2701 112.646 29.919 109.505L28.7993 107.848C25.4787 110.091 21 107.712 21 103.705H19ZM21 26.2953C21 22.2878 25.4787 19.9087 28.7993 22.1524L29.919 20.4952C25.2702 17.3541 19 20.6848 19 26.2953H21Z" fill="url(#paint1_linear_914_61525)" fill-opacity="0.6" mask="url(#path-3-inside-2_914_61525)"/>
</g>
</g>
<g id="Shine">
<g id="Shine_2">
<mask id="path-5-inside-3_914_61525" fill="white">
<path fill-rule="evenodd" clip-rule="evenodd" d="M69.9746 104.882C65.1151 108.166 62.6854 109.807 60.6684 109.696C58.9115 109.598 57.2859 108.735 56.2217 107.334C55 105.725 55 102.792 55 96.9276V33.0725C55 27.2077 55 24.2753 56.2217 22.6666C57.2859 21.2653 58.9115 20.4018 60.6684 20.3045C62.6854 20.1929 65.1151 21.8346 69.9747 25.1181L117.227 57.0456C121.17 59.7098 123.142 61.0419 123.831 62.7154C124.434 64.1789 124.434 65.8212 123.831 67.2847C123.142 68.9583 121.17 70.2904 117.227 72.9545L69.9746 104.882ZM146 21.0001C148.209 21.0001 150 22.7909 150 25.0001V105C150 107.209 148.209 109 146 109H136.5C134.291 109 132.5 107.209 132.5 105V25.0001C132.5 22.7909 134.291 21.0001 136.5 21.0001H146Z"/>
</mask>
<path fill-rule="evenodd" clip-rule="evenodd" d="M69.9746 104.882C65.1151 108.166 62.6854 109.807 60.6684 109.696C58.9115 109.598 57.2859 108.735 56.2217 107.334C55 105.725 55 102.792 55 96.9276V33.0725C55 27.2077 55 24.2753 56.2217 22.6666C57.2859 21.2653 58.9115 20.4018 60.6684 20.3045C62.6854 20.1929 65.1151 21.8346 69.9747 25.1181L117.227 57.0456C121.17 59.7098 123.142 61.0419 123.831 62.7154C124.434 64.1789 124.434 65.8212 123.831 67.2847C123.142 68.9583 121.17 70.2904 117.227 72.9545L69.9746 104.882ZM146 21.0001C148.209 21.0001 150 22.7909 150 25.0001V105C150 107.209 148.209 109 146 109H136.5C134.291 109 132.5 107.209 132.5 105V25.0001C132.5 22.7909 134.291 21.0001 136.5 21.0001H146Z" fill="url(#paint2_linear_914_61525)"/>
<path d="M123.831 62.7154L122.906 63.0962L123.831 62.7154ZM117.227 72.9545L116.668 72.126L117.227 72.9545ZM123.831 67.2847L122.906 66.904L123.831 67.2847ZM56.2217 107.334L57.0181 106.729L56.2217 107.334ZM69.9746 104.882L70.5345 105.711L69.9746 104.882ZM60.6684 109.696L60.6132 110.694L60.6684 109.696ZM54 33.0725V96.9276H56V33.0725H54ZM117.787 56.217L70.5345 24.2895L69.4148 25.9467L116.668 57.8742L117.787 56.217ZM70.5345 105.711L117.787 73.7831L116.668 72.126L69.4148 104.053L70.5345 105.711ZM151 25.0001C151 22.2387 148.761 20.0001 146 20.0001V22.0001C147.657 22.0001 149 23.3432 149 25.0001H151ZM151 105V25.0001H149V105H151ZM146 110C148.761 110 151 107.762 151 105H149C149 106.657 147.657 108 146 108V110ZM136.5 110H146V108H136.5V110ZM131.5 105C131.5 107.762 133.739 110 136.5 110V108C134.843 108 133.5 106.657 133.5 105H131.5ZM131.5 25.0001V105H133.5V25.0001H131.5ZM136.5 20.0001C133.739 20.0001 131.5 22.2387 131.5 25.0001H133.5C133.5 23.3432 134.843 22.0001 136.5 22.0001V20.0001ZM146 20.0001H136.5V22.0001H146V20.0001ZM116.668 57.8742C118.655 59.217 120.088 60.1868 121.117 61.0266C122.143 61.8647 122.656 62.4883 122.906 63.0962L124.756 62.3347C124.317 61.269 123.499 60.3898 122.382 59.4774C121.267 58.5667 119.743 57.5384 117.787 56.217L116.668 57.8742ZM117.787 73.7831C119.743 72.4618 121.266 71.4335 122.382 70.5228C123.499 69.6104 124.317 68.7312 124.756 67.6655L122.906 66.904C122.656 67.5118 122.143 68.1355 121.117 68.9736C120.088 69.8134 118.655 70.7832 116.668 72.126L117.787 73.7831ZM122.906 63.0962C123.409 64.3158 123.409 65.6844 122.906 66.904L124.756 67.6655C125.459 65.9581 125.459 64.0421 124.756 62.3347L122.906 63.0962ZM54 96.9276C54 99.8401 53.999 102.094 54.1569 103.818C54.3138 105.531 54.6386 106.902 55.4253 107.938L57.0181 106.729C56.5831 106.156 56.2971 105.257 56.1485 103.635C56.001 102.025 56 99.8799 56 96.9276H54ZM69.4148 104.053C66.9685 105.706 65.1909 106.906 63.7736 107.686C62.347 108.47 61.4419 108.737 60.7237 108.697L60.6132 110.694C61.9119 110.766 63.2302 110.267 64.7375 109.438C66.2542 108.604 68.1212 107.341 70.5345 105.711L69.4148 104.053ZM55.4253 107.938C56.6669 109.573 58.5635 110.581 60.6132 110.694L60.7237 108.697C59.2596 108.616 57.9049 107.896 57.0181 106.729L55.4253 107.938ZM56 33.0725C56 30.1203 56.001 27.9756 56.1485 26.3648C56.2971 24.7433 56.5831 23.8442 57.0181 23.2714L55.4253 22.0618C54.6386 23.0977 54.3138 24.4692 54.1569 26.1823C53.999 27.9061 54 30.16 54 33.0725H56ZM70.5345 24.2895C68.1212 22.6589 66.2542 21.3962 64.7375 20.5619C63.2302 19.7328 61.912 19.2342 60.6132 19.3061L60.7237 21.303C61.4419 21.2633 62.347 21.5296 63.7736 22.3144C65.1909 23.0939 66.9686 24.2938 69.4148 25.9467L70.5345 24.2895ZM57.0181 23.2714C57.9049 22.1037 59.2596 21.384 60.7237 21.303L60.6132 19.3061C58.5635 19.4195 56.6669 20.427 55.4253 22.0618L57.0181 23.2714Z" fill="url(#paint3_linear_914_61525)" fill-opacity="0.6" mask="url(#path-5-inside-3_914_61525)"/>
</g>
</g>
</g>
<g id="text-padded/Cleaned">
<path id="NoMercyTV" d="M178.536 72.5V21.452H187.536L191.424 31.892V72.5H178.536ZM213.744 72.5L183.936 34.628L187.536 21.452L217.416 59.324L213.744 72.5ZM213.744 72.5L210.432 61.772V21.452H223.32V72.5H213.744ZM248.883 73.292C245.091 73.292 241.707 72.5 238.731 70.916C235.803 69.284 233.475 67.076 231.747 64.292C230.019 61.46 229.155 58.292 229.155 54.788C229.155 51.284 229.995 48.164 231.675 45.428C233.403 42.644 235.755 40.46 238.731 38.876C241.707 37.244 245.067 36.428 248.811 36.428C252.555 36.428 255.891 37.244 258.819 38.876C261.795 40.46 264.147 42.644 265.875 45.428C267.603 48.164 268.467 51.284 268.467 54.788C268.467 58.292 267.603 61.46 265.875 64.292C264.195 67.076 261.867 69.284 258.891 70.916C255.963 72.5 252.627 73.292 248.883 73.292ZM248.811 62.132C250.203 62.132 251.403 61.844 252.411 61.268C253.467 60.644 254.283 59.78 254.859 58.676C255.435 57.572 255.723 56.3 255.723 54.86C255.723 53.42 255.411 52.172 254.787 51.116C254.211 50.012 253.419 49.172 252.411 48.596C251.403 47.972 250.203 47.66 248.811 47.66C247.467 47.66 246.267 47.972 245.211 48.596C244.155 49.22 243.339 50.084 242.763 51.188C242.187 52.244 241.899 53.492 241.899 54.932C241.899 56.324 242.187 57.572 242.763 58.676C243.339 59.78 244.155 60.644 245.211 61.268C246.267 61.844 247.467 62.132 248.811 62.132ZM274.302 72.5V21.452H283.59L303.174 51.044H298.782L318.294 21.452H327.582V72.5H314.838V42.764L316.854 43.34L305.118 60.98H296.766L285.102 43.34L287.118 42.764V72.5H274.302ZM353.589 73.292C349.653 73.292 346.173 72.524 343.149 70.988C340.125 69.404 337.749 67.22 336.021 64.436C334.293 61.652 333.429 58.46 333.429 54.86C333.429 51.308 334.269 48.164 335.949 45.428C337.629 42.644 339.909 40.46 342.789 38.876C345.717 37.244 349.005 36.428 352.653 36.428C356.205 36.428 359.349 37.196 362.085 38.732C364.869 40.22 367.029 42.308 368.565 44.996C370.149 47.636 370.941 50.66 370.941 54.068C370.941 54.788 370.893 55.532 370.797 56.3C370.749 57.02 370.605 57.86 370.365 58.82L339.333 58.964V50.9L365.397 50.684L359.781 54.212C359.733 52.244 359.445 50.636 358.917 49.388C358.389 48.092 357.621 47.108 356.613 46.436C355.605 45.764 354.333 45.428 352.797 45.428C351.213 45.428 349.845 45.812 348.693 46.58C347.541 47.348 346.653 48.428 346.029 49.82C345.405 51.212 345.093 52.892 345.093 54.86C345.093 56.876 345.429 58.604 346.101 60.044C346.773 61.436 347.733 62.492 348.981 63.212C350.229 63.932 351.765 64.292 353.589 64.292C355.317 64.292 356.829 64.004 358.125 63.428C359.469 62.852 360.669 61.964 361.725 60.764L368.277 67.316C366.549 69.284 364.437 70.772 361.941 71.78C359.493 72.788 356.709 73.292 353.589 73.292ZM375.672 72.5V37.292H388.2V72.5H375.672ZM388.2 53.348L382.584 48.596C383.976 44.612 385.824 41.612 388.128 39.596C390.432 37.58 393.432 36.572 397.128 36.572C398.808 36.572 400.248 36.788 401.448 37.22C402.696 37.652 403.752 38.324 404.616 39.236L397.344 48.956C396.96 48.524 396.408 48.188 395.688 47.948C395.016 47.66 394.248 47.516 393.384 47.516C391.752 47.516 390.48 48.02 389.568 49.028C388.656 49.988 388.2 51.428 388.2 53.348ZM423.541 73.292C419.797 73.292 416.413 72.5 413.389 70.916C410.413 69.332 408.061 67.148 406.333 64.364C404.605 61.58 403.741 58.436 403.741 54.932C403.741 51.38 404.605 48.212 406.333 45.428C408.109 42.644 410.485 40.46 413.461 38.876C416.485 37.244 419.893 36.428 423.685 36.428C426.421 36.428 428.917 36.884 431.173 37.796C433.429 38.708 435.493 40.076 437.365 41.9L429.445 49.82C428.725 49.1 427.885 48.572 426.925 48.236C426.013 47.852 424.933 47.66 423.685 47.66C422.341 47.66 421.117 47.972 420.013 48.596C418.957 49.172 418.093 49.988 417.421 51.044C416.797 52.1 416.485 53.372 416.485 54.86C416.485 56.3 416.797 57.572 417.421 58.676C418.093 59.732 418.957 60.572 420.013 61.196C421.117 61.82 422.341 62.132 423.685 62.132C425.029 62.132 426.181 61.916 427.141 61.484C428.101 61.052 428.941 60.428 429.661 59.612L437.653 67.532C435.685 69.452 433.549 70.892 431.245 71.852C428.989 72.812 426.421 73.292 423.541 73.292ZM452.7 72.572L438.588 37.292H451.98L460.62 66.308H455.364L464.076 37.292H477.468L462.996 72.5L452.7 72.572ZM444.348 87.404L454.788 64.436L462.996 72.5L456.948 87.404H444.348ZM494.389 72.5V21.812H507.277V72.5H494.389ZM478.765 32.54V21.452H522.901V32.54H478.765ZM542.766 72.5L523.542 21.452H537.294L551.694 62.708H545.79L560.406 21.452H573.87L554.43 72.5H542.766Z" fill="white"/>
<path id="The-Effortless-Encoder" d="M185.802 109.5V85.14H191.297V109.5H185.802ZM178.067 89.585V84.79H199.032V89.585H178.067ZM213.545 109.5V99.805C213.545 98.9183 213.265 98.2067 212.705 97.67C212.169 97.11 211.48 96.83 210.64 96.83C210.057 96.83 209.544 96.9583 209.1 97.215C208.657 97.4483 208.307 97.7983 208.05 98.265C207.794 98.7083 207.665 99.2217 207.665 99.805L205.6 98.79C205.6 97.46 205.88 96.2933 206.44 95.29C207 94.2867 207.782 93.5167 208.785 92.98C209.789 92.42 210.944 92.14 212.25 92.14C213.58 92.14 214.747 92.42 215.75 92.98C216.754 93.5167 217.524 94.275 218.06 95.255C218.62 96.2117 218.9 97.3317 218.9 98.615V109.5H213.545ZM202.31 109.5V84.09H207.665V109.5H202.31ZM231.44 109.885C229.596 109.885 227.951 109.512 226.505 108.765C225.081 107.995 223.961 106.933 223.145 105.58C222.328 104.227 221.92 102.698 221.92 100.995C221.92 99.2917 222.316 97.775 223.11 96.445C223.926 95.0917 225.023 94.03 226.4 93.26C227.776 92.49 229.328 92.105 231.055 92.105C232.735 92.105 234.216 92.4667 235.5 93.19C236.783 93.9133 237.786 94.9167 238.51 96.2C239.256 97.4833 239.63 98.9533 239.63 100.61C239.63 100.913 239.606 101.24 239.56 101.59C239.536 101.917 239.478 102.302 239.385 102.745L224.72 102.78V99.105L237.11 99.07L234.8 100.61C234.776 99.63 234.625 98.825 234.345 98.195C234.065 97.5417 233.645 97.0517 233.085 96.725C232.548 96.375 231.883 96.2 231.09 96.2C230.25 96.2 229.515 96.3983 228.885 96.795C228.278 97.1683 227.8 97.705 227.45 98.405C227.123 99.105 226.96 99.9567 226.96 100.96C226.96 101.963 227.135 102.827 227.485 103.55C227.858 104.25 228.371 104.798 229.025 105.195C229.701 105.568 230.495 105.755 231.405 105.755C232.245 105.755 233.003 105.615 233.68 105.335C234.356 105.032 234.951 104.588 235.465 104.005L238.405 106.945C237.565 107.925 236.55 108.66 235.36 109.15C234.17 109.64 232.863 109.885 231.44 109.885ZM250.77 109.5V84.79H256.265V109.5H250.77ZM254.97 109.5V104.74H268.515V109.5H254.97ZM254.97 99.175V94.59H267.29V99.175H254.97ZM254.97 89.515V84.79H268.34V89.515H254.97ZM274.683 109.5V91.755C274.683 90.285 274.986 88.9783 275.593 87.835C276.223 86.6683 277.121 85.7467 278.288 85.07C279.454 84.3933 280.831 84.055 282.418 84.055C284.004 84.055 285.334 84.3817 286.408 85.035C287.481 85.6883 288.274 86.5283 288.788 87.555C289.324 88.5817 289.593 89.69 289.593 90.88L285.463 91.405C285.463 90.5417 285.229 89.865 284.763 89.375C284.296 88.885 283.631 88.64 282.768 88.64C281.881 88.64 281.204 88.885 280.738 89.375C280.271 89.8417 280.038 90.5067 280.038 91.37V109.5H274.683ZM270.938 97.04V92.49H295.718V97.04H270.938ZM285.463 109.5V91.055C285.463 89.655 285.766 88.4067 286.373 87.31C287.003 86.19 287.878 85.315 288.998 84.685C290.118 84.0317 291.448 83.705 292.988 83.705C294.154 83.705 295.169 83.9033 296.033 84.3C296.919 84.6733 297.689 85.1983 298.343 85.875L294.983 89.235C294.749 89.0017 294.481 88.8267 294.178 88.71C293.898 88.57 293.559 88.5 293.163 88.5C292.439 88.5 291.868 88.71 291.448 89.13C291.028 89.55 290.818 90.1217 290.818 90.845V109.5H285.463ZM306.696 109.885C304.946 109.885 303.359 109.5 301.936 108.73C300.536 107.937 299.427 106.863 298.611 105.51C297.794 104.157 297.386 102.64 297.386 100.96C297.386 99.28 297.794 97.775 298.611 96.445C299.427 95.115 300.536 94.065 301.936 93.295C303.336 92.5017 304.922 92.105 306.696 92.105C308.469 92.105 310.056 92.49 311.456 93.26C312.856 94.03 313.964 95.0917 314.781 96.445C315.597 97.775 316.006 99.28 316.006 100.96C316.006 102.64 315.597 104.157 314.781 105.51C313.964 106.863 312.856 107.937 311.456 108.73C310.056 109.5 308.469 109.885 306.696 109.885ZM306.696 105.02C307.466 105.02 308.142 104.857 308.726 104.53C309.309 104.18 309.752 103.702 310.056 103.095C310.382 102.465 310.546 101.753 310.546 100.96C310.546 100.167 310.382 99.4783 310.056 98.895C309.729 98.2883 309.274 97.8217 308.691 97.495C308.131 97.145 307.466 96.97 306.696 96.97C305.949 96.97 305.284 97.145 304.701 97.495C304.117 97.8217 303.662 98.2883 303.336 98.895C303.009 99.5017 302.846 100.202 302.846 100.995C302.846 101.765 303.009 102.465 303.336 103.095C303.662 103.702 304.117 104.18 304.701 104.53C305.284 104.857 305.949 105.02 306.696 105.02ZM319.372 109.5V92.49H324.727V109.5H319.372ZM324.727 100.155L322.487 98.405C322.93 96.4217 323.677 94.8817 324.727 93.785C325.777 92.6883 327.235 92.14 329.102 92.14C329.918 92.14 330.63 92.2683 331.237 92.525C331.867 92.7583 332.415 93.1317 332.882 93.645L329.697 97.67C329.463 97.4133 329.172 97.215 328.822 97.075C328.472 96.935 328.075 96.865 327.632 96.865C326.745 96.865 326.033 97.145 325.497 97.705C324.983 98.2417 324.727 99.0583 324.727 100.155ZM337.594 109.5V85.455H342.949V109.5H337.594ZM333.744 97.04V92.49H346.799V97.04H333.744ZM349.859 109.5V84.09H355.214V109.5H349.859ZM368.085 109.885C366.241 109.885 364.596 109.512 363.15 108.765C361.726 107.995 360.606 106.933 359.79 105.58C358.973 104.227 358.565 102.698 358.565 100.995C358.565 99.2917 358.961 97.775 359.755 96.445C360.571 95.0917 361.668 94.03 363.045 93.26C364.421 92.49 365.973 92.105 367.7 92.105C369.38 92.105 370.861 92.4667 372.145 93.19C373.428 93.9133 374.431 94.9167 375.155 96.2C375.901 97.4833 376.275 98.9533 376.275 100.61C376.275 100.913 376.251 101.24 376.205 101.59C376.181 101.917 376.123 102.302 376.03 102.745L361.365 102.78V99.105L373.755 99.07L371.445 100.61C371.421 99.63 371.27 98.825 370.99 98.195C370.71 97.5417 370.29 97.0517 369.73 96.725C369.193 96.375 368.528 96.2 367.735 96.2C366.895 96.2 366.16 96.3983 365.53 96.795C364.923 97.1683 364.445 97.705 364.095 98.405C363.768 99.105 363.605 99.9567 363.605 100.96C363.605 101.963 363.78 102.827 364.13 103.55C364.503 104.25 365.016 104.798 365.67 105.195C366.346 105.568 367.14 105.755 368.05 105.755C368.89 105.755 369.648 105.615 370.325 105.335C371.001 105.032 371.596 104.588 372.11 104.005L375.05 106.945C374.21 107.925 373.195 108.66 372.005 109.15C370.815 109.64 369.508 109.885 368.085 109.885ZM385.754 109.92C384.751 109.92 383.759 109.792 382.779 109.535C381.823 109.278 380.924 108.917 380.084 108.45C379.268 107.96 378.568 107.4 377.984 106.77L381.029 103.69C381.589 104.297 382.254 104.775 383.024 105.125C383.794 105.452 384.634 105.615 385.544 105.615C386.174 105.615 386.653 105.522 386.979 105.335C387.329 105.148 387.504 104.892 387.504 104.565C387.504 104.145 387.294 103.83 386.874 103.62C386.478 103.387 385.964 103.188 385.334 103.025C384.704 102.838 384.039 102.64 383.339 102.43C382.639 102.22 381.974 101.928 381.344 101.555C380.714 101.182 380.201 100.668 379.804 100.015C379.408 99.3383 379.209 98.4867 379.209 97.46C379.209 96.3633 379.489 95.4183 380.049 94.625C380.609 93.8083 381.403 93.1667 382.429 92.7C383.456 92.2333 384.658 92 386.034 92C387.481 92 388.811 92.2567 390.024 92.77C391.261 93.26 392.264 93.995 393.034 94.975L389.989 98.055C389.453 97.425 388.846 96.9817 388.169 96.725C387.516 96.4683 386.874 96.34 386.244 96.34C385.638 96.34 385.183 96.4333 384.879 96.62C384.576 96.7833 384.424 97.0283 384.424 97.355C384.424 97.705 384.623 97.985 385.019 98.195C385.416 98.405 385.929 98.5917 386.559 98.755C387.189 98.9183 387.854 99.1167 388.554 99.35C389.254 99.5833 389.919 99.8983 390.549 100.295C391.179 100.692 391.693 101.228 392.089 101.905C392.486 102.558 392.684 103.422 392.684 104.495C392.684 106.152 392.054 107.47 390.794 108.45C389.558 109.43 387.878 109.92 385.754 109.92ZM402.485 109.92C401.481 109.92 400.49 109.792 399.51 109.535C398.553 109.278 397.655 108.917 396.815 108.45C395.998 107.96 395.298 107.4 394.715 106.77L397.76 103.69C398.32 104.297 398.985 104.775 399.755 105.125C400.525 105.452 401.365 105.615 402.275 105.615C402.905 105.615 403.383 105.522 403.71 105.335C404.06 105.148 404.235 104.892 404.235 104.565C404.235 104.145 404.025 103.83 403.605 103.62C403.208 103.387 402.695 103.188 402.065 103.025C401.435 102.838 400.77 102.64 400.07 102.43C399.37 102.22 398.705 101.928 398.075 101.555C397.445 101.182 396.931 100.668 396.535 100.015C396.138 99.3383 395.94 98.4867 395.94 97.46C395.94 96.3633 396.22 95.4183 396.78 94.625C397.34 93.8083 398.133 93.1667 399.16 92.7C400.186 92.2333 401.388 92 402.765 92C404.211 92 405.541 92.2567 406.755 92.77C407.991 93.26 408.995 93.995 409.765 94.975L406.72 98.055C406.183 97.425 405.576 96.9817 404.9 96.725C404.246 96.4683 403.605 96.34 402.975 96.34C402.368 96.34 401.913 96.4333 401.61 96.62C401.306 96.7833 401.155 97.0283 401.155 97.355C401.155 97.705 401.353 97.985 401.75 98.195C402.146 98.405 402.66 98.5917 403.29 98.755C403.92 98.9183 404.585 99.1167 405.285 99.35C405.985 99.5833 406.65 99.8983 407.28 100.295C407.91 100.692 408.423 101.228 408.82 101.905C409.216 102.558 409.415 103.422 409.415 104.495C409.415 106.152 408.785 107.47 407.525 108.45C406.288 109.43 404.608 109.92 402.485 109.92ZM420.875 109.5V84.79H426.37V109.5H420.875ZM425.075 109.5V104.74H438.62V109.5H425.075ZM425.075 99.175V94.59H437.395V99.175H425.075ZM425.075 89.515V84.79H438.445V89.515H425.075ZM453.853 109.5V99.805C453.853 98.9183 453.573 98.2067 453.013 97.67C452.477 97.11 451.788 96.83 450.948 96.83C450.365 96.83 449.852 96.9583 449.408 97.215C448.965 97.4483 448.615 97.7983 448.358 98.265C448.102 98.7083 447.973 99.2217 447.973 99.805L445.908 98.79C445.908 97.46 446.2 96.2933 446.783 95.29C447.367 94.2867 448.172 93.5167 449.198 92.98C450.248 92.42 451.427 92.14 452.733 92.14C453.993 92.14 455.102 92.4433 456.058 93.05C457.038 93.6333 457.808 94.415 458.368 95.395C458.928 96.375 459.208 97.4483 459.208 98.615V109.5H453.853ZM442.618 109.5V92.49H447.973V109.5H442.618ZM471.572 109.885C469.822 109.885 468.236 109.5 466.812 108.73C465.389 107.96 464.269 106.898 463.452 105.545C462.636 104.192 462.227 102.675 462.227 100.995C462.227 99.2917 462.636 97.775 463.452 96.445C464.292 95.0917 465.424 94.03 466.847 93.26C468.271 92.49 469.869 92.105 471.642 92.105C472.972 92.105 474.186 92.3383 475.282 92.805C476.402 93.2483 477.394 93.925 478.257 94.835L474.827 98.265C474.431 97.8217 473.964 97.495 473.427 97.285C472.914 97.075 472.319 96.97 471.642 96.97C470.872 96.97 470.184 97.145 469.577 97.495C468.994 97.8217 468.527 98.2883 468.177 98.895C467.851 99.4783 467.687 100.167 467.687 100.96C467.687 101.753 467.851 102.453 468.177 103.06C468.527 103.667 469.006 104.145 469.612 104.495C470.219 104.845 470.896 105.02 471.642 105.02C472.342 105.02 472.961 104.903 473.497 104.67C474.057 104.413 474.536 104.063 474.932 103.62L478.327 107.05C477.441 107.983 476.437 108.695 475.317 109.185C474.197 109.652 472.949 109.885 471.572 109.885ZM489.191 109.885C487.441 109.885 485.854 109.5 484.431 108.73C483.031 107.937 481.922 106.863 481.106 105.51C480.289 104.157 479.881 102.64 479.881 100.96C479.881 99.28 480.289 97.775 481.106 96.445C481.922 95.115 483.031 94.065 484.431 93.295C485.831 92.5017 487.417 92.105 489.191 92.105C490.964 92.105 492.551 92.49 493.951 93.26C495.351 94.03 496.459 95.0917 497.276 96.445C498.092 97.775 498.501 99.28 498.501 100.96C498.501 102.64 498.092 104.157 497.276 105.51C496.459 106.863 495.351 107.937 493.951 108.73C492.551 109.5 490.964 109.885 489.191 109.885ZM489.191 105.02C489.961 105.02 490.637 104.857 491.221 104.53C491.804 104.18 492.247 103.702 492.551 103.095C492.877 102.465 493.041 101.753 493.041 100.96C493.041 100.167 492.877 99.4783 492.551 98.895C492.224 98.2883 491.769 97.8217 491.186 97.495C490.626 97.145 489.961 96.97 489.191 96.97C488.444 96.97 487.779 97.145 487.196 97.495C486.612 97.8217 486.157 98.2883 485.831 98.895C485.504 99.5017 485.341 100.202 485.341 100.995C485.341 101.765 485.504 102.465 485.831 103.095C486.157 103.702 486.612 104.18 487.196 104.53C487.779 104.857 488.444 105.02 489.191 105.02ZM509.112 109.85C507.502 109.85 506.067 109.465 504.807 108.695C503.57 107.925 502.59 106.875 501.867 105.545C501.167 104.215 500.817 102.698 500.817 100.995C500.817 99.2917 501.167 97.775 501.867 96.445C502.59 95.115 503.57 94.065 504.807 93.295C506.067 92.525 507.502 92.14 509.112 92.14C510.278 92.14 511.328 92.3617 512.262 92.805C513.218 93.2483 514 93.8667 514.607 94.66C515.237 95.43 515.587 96.3167 515.657 97.32V104.495C515.587 105.498 515.248 106.408 514.642 107.225C514.035 108.018 513.253 108.66 512.297 109.15C511.34 109.617 510.278 109.85 509.112 109.85ZM510.057 105.02C510.827 105.02 511.492 104.857 512.052 104.53C512.612 104.18 513.055 103.702 513.382 103.095C513.708 102.488 513.872 101.788 513.872 100.995C513.872 100.202 513.708 99.5133 513.382 98.93C513.078 98.3233 512.635 97.845 512.052 97.495C511.492 97.145 510.838 96.97 510.092 96.97C509.345 96.97 508.68 97.145 508.097 97.495C507.537 97.845 507.082 98.3233 506.732 98.93C506.405 99.5367 506.242 100.225 506.242 100.995C506.242 101.765 506.405 102.453 506.732 103.06C507.058 103.667 507.513 104.145 508.097 104.495C508.68 104.845 509.333 105.02 510.057 105.02ZM518.912 109.5H513.662V104.915L514.467 100.785L513.557 96.655V84.09H518.912V109.5ZM531.782 109.885C529.939 109.885 528.294 109.512 526.847 108.765C525.424 107.995 524.304 106.933 523.487 105.58C522.67 104.227 522.262 102.698 522.262 100.995C522.262 99.2917 522.659 97.775 523.452 96.445C524.269 95.0917 525.365 94.03 526.742 93.26C528.119 92.49 529.67 92.105 531.397 92.105C533.077 92.105 534.559 92.4667 535.842 93.19C537.125 93.9133 538.129 94.9167 538.852 96.2C539.599 97.4833 539.972 98.9533 539.972 100.61C539.972 100.913 539.949 101.24 539.902 101.59C539.879 101.917 539.82 102.302 539.727 102.745L525.062 102.78V99.105L537.452 99.07L535.142 100.61C535.119 99.63 534.967 98.825 534.687 98.195C534.407 97.5417 533.987 97.0517 533.427 96.725C532.89 96.375 532.225 96.2 531.432 96.2C530.592 96.2 529.857 96.3983 529.227 96.795C528.62 97.1683 528.142 97.705 527.792 98.405C527.465 99.105 527.302 99.9567 527.302 100.96C527.302 101.963 527.477 102.827 527.827 103.55C528.2 104.25 528.714 104.798 529.367 105.195C530.044 105.568 530.837 105.755 531.747 105.755C532.587 105.755 533.345 105.615 534.022 105.335C534.699 105.032 535.294 104.588 535.807 104.005L538.747 106.945C537.907 107.925 536.892 108.66 535.702 109.15C534.512 109.64 533.205 109.885 531.782 109.885ZM543.257 109.5V92.49H548.612V109.5H543.257ZM548.612 100.155L546.372 98.405C546.815 96.4217 547.562 94.8817 548.612 93.785C549.662 92.6883 551.12 92.14 552.987 92.14C553.804 92.14 554.515 92.2683 555.122 92.525C555.752 92.7583 556.3 93.1317 556.767 93.645L553.582 97.67C553.349 97.4133 553.057 97.215 552.707 97.075C552.357 96.935 551.96 96.865 551.517 96.865C550.63 96.865 549.919 97.145 549.382 97.705C548.869 98.2417 548.612 99.0583 548.612 100.155Z" fill="#7F56D9"/>
</g>
</g>
<defs>
<linearGradient id="paint0_linear_914_61525" x1="48" y1="13.7255" x2="90.0058" y2="82.0545" gradientUnits="userSpaceOnUse">
<stop stop-color="white"/>
<stop offset="1" stop-color="white" stop-opacity="0"/>
</linearGradient>
<linearGradient id="paint1_linear_914_61525" x1="13" y1="13.7094" x2="55.025" y2="82.048" gradientUnits="userSpaceOnUse">
<stop stop-color="white"/>
<stop offset="1" stop-color="white" stop-opacity="0"/>
</linearGradient>
<linearGradient id="paint2_linear_914_61525" x1="102.5" y1="20.2992" x2="102.5" y2="109.701" gradientUnits="userSpaceOnUse">
<stop stop-color="white" stop-opacity="0.4"/>
<stop offset="0.5" stop-color="white" stop-opacity="0.1"/>
<stop offset="1" stop-color="white" stop-opacity="0"/>
</linearGradient>
<linearGradient id="paint3_linear_914_61525" x1="48" y1="13.7255" x2="82.8044" y2="55.144" gradientUnits="userSpaceOnUse">
<stop stop-color="white"/>
<stop offset="1" stop-color="white" stop-opacity="0"/>
</linearGradient>
</defs>
</svg>
